#!OML:ASF H:\Dans Jumps\Project 1\Capture day 1\Session 1\subject.ASF
:FULLY-SPECIFIED
:DEGREES
332
root 0.238742 16.1037 -11.7016 22.9719 2.17047 -0.0496572
lowerback 12.5108 -0.084981 -1.9871
upperback 0.689105 -0.247674 2.1807
thorax -6.28107 -0.0322644 3.47207
lowerneck -22.2814 0.0011759 -2.9987
upperneck 14.6534 0.941792 0.0106821
head 8.1753 0.270457 0.612117
rclavicle 1.59028e-015 7.95139e-015
rhumerus -16.2476 -11.7323 -82.3832
rradius 25.6159
rwrist 32.8224
rhand -21.4426 -26.3359
rfingers 7.12502
rthumb 4.947 -56.2581
lclavicle 1.59028e-015 7.95139e-015
lhumerus -8.43103 8.59118 88.3873
lradius 15.9289
lwrist 0.483412
lhand -30.6322 -9.85821
lfingers 7.12502
lthumb -3.928 20.0853
rfemur -38.2905 -2.25264 20.7117
rtibia 54.4806
rfoot -31.6522 -19.075
rtoes -11.705
lfemur -38.6014 4.10871 -17.7095
ltibia 55.085
lfoot -24.9101 19.8477
ltoes -22.5294
333
root 0.236879 16.2571 -11.4621 22.249 2.2885 0.266252
lowerback 11.5392 -0.165948 -2.14281
upperback 0.726868 -0.373718 2.0442
thorax -5.68743 -0.102683 3.42124
lowerneck -21.6069 0.0134695 -2.99521
upperneck 15.3838 0.93181 0.058646
head 8.30945 0.262867 0.6278
rclavicle 1.0138e-014 6.75868e-015
rhumerus -16.4114 -11.0935 -82.6548
rradius 25.9308
rwrist 32.4222
rhand -21.3987 -26.3343
rfingers 7.12502
rthumb 4.98939 -56.2556
lclavicle 1.0138e-014 6.75868e-015
lhumerus -8.71634 6.98456 88.4842
lradius 16.4943
lwrist 2.09986
lhand -30.9092 -10.177
lfingers 7.12502
lthumb -4.19548 19.7615
rfemur -35.348 -2.45267 20.314
rtibia 52.2027
rfoot -30.5937 -18.5584
rtoes -12.8947
lfemur -36.1854 4.29146 -17.9016
ltibia 53.4773
lfoot -23.4999 18.484
ltoes -23.5253
334
root 0.235013 16.4211 -11.2144 21.5434 2.40288 0.563856
lowerback 10.4228 -0.246896 -2.2937
upperback 0.780957 -0.492279 1.90139
thorax -4.99686 -0.172244 3.35563
lowerneck -20.7989 0.0345758 -2.97649
upperneck 16.0891 0.921297 0.118523
head 8.41102 0.257978 0.644508
rclavicle 6.36111e-015 0
rhumerus -16.6059 -10.5265 -82.9354
rradius 26.2343
rwrist 31.8722
rhand -21.3185 -26.3176
rfingers 7.12502
rthumb 5.06679 -56.237
lclavicle 6.36111e-015 0
lhumerus -9.0343 5.43283 88.5702
lradius 17.0072
lwrist 3.70495
lhand -31.144 -10.5492
lfingers 7.12502
lthumb -4.42218 19.3847
rfemur -32.4406 -2.66261 19.93
rtibia 49.9157
rfoot -29.1966 -17.8249
rtoes -14.1598
lfemur -33.8539 4.55137 -18.0492
ltibia 51.9228
lfoot -21.8674 16.7582
ltoes -24.3975
335
root 0.233704 16.5964 -10.9595 20.8459 2.51337 0.829222
lowerback 9.19541 -0.325761 -2.4235
upperback 0.855061 -0.598097 1.75873
thorax -4.22523 -0.238243 3.27291
lowerneck -19.8461 0.0557275 -2.96437
upperneck 16.7284 0.901592 0.203078
head 8.46337 0.252234 0.668685
rclavicle 1.96797e-014 -1.51076e-014
rhumerus -16.8263 -10.0284 -83.2139
rradius 26.531
rwrist 31.2826
rhand -21.1968 -26.2828
rfingers 7.12502
rthumb 5.18433 -56.1994
lclavicle 1.96797e-014 -1.51076e-014
lhumerus -9.36719 4.00795 88.6476
lradius 17.4451
lwrist 5.13168
lhand -31.3041 -10.9933
lfingers 7.12502
lthumb -4.57683 18.9372
rfemur -29.5013 -2.90375 19.5739
rtibia 47.4315
rfoot -27.2824 -16.8076
rtoes -15.4656
lfemur -31.5098 4.85124 -18.1251
ltibia 50.1773
lfoot -19.842 14.642
ltoes -25.0759
336
root 0.233578 16.7839 -10.6981 20.14 2.61636 1.04386
lowerback 7.89886 -0.400453 -2.51174
upperback 0.955504 -0.687207 1.62319
thorax -3.3902 -0.298356 3.16954
lowerneck -18.7594 0.0770578 -2.95298
upperneck 17.2788 0.874565 0.296955
head 8.46002 0.245298 0.69428
rclavicle 4.77083e-015 -2.0276e-014
rhumerus -17.0701 -9.58132 -83.4846
rradius 26.8293
rwrist 30.7674
rhand -21.0565 -26.2359
rfingers 7.12502
rthumb 5.31984 -56.1491
lclavicle 4.77083e-015 -2.0276e-014
lhumerus -9.709 2.73664 88.7181
lradius 17.8122
lwrist 6.30069
lhand -31.351 -11.3467
lfingers 7.12502
lthumb -4.6221 18.5829
rfemur -26.6356 -3.18871 19.2579
rtibia 45.0094
rfoot -24.979 -15.5131
rtoes -16.729
lfemur -29.2154 5.14646 -18.1033
ltibia 48.4295
lfoot -17.4959 12.2569
ltoes -25.5358
337
root 0.234844 16.9839 -10.4315 19.4061 2.71188 1.19846
lowerback 6.58808 -0.46889 -2.5516
upperback 1.08355 -0.758844 1.50333
thorax -2.52143 -0.351075 3.05219
lowerneck -17.5494 0.0958357 -2.94928
upperneck 17.7264 0.840873 0.390993
head 8.39791 0.235938 0.719349
rclavicle -7.95139e-015 8.74653e-015
rhumerus -17.3357 -9.1759 -83.735
rradius 27.124
rwrist 30.4334
rhand -20.9106 -26.1816
rfingers 7.12502
rthumb 5.46066 -56.0913
lclavicle -7.95139e-015 8.74653e-015
lhumerus -10.0644 1.65391 88.7839
lradius 18.1124
lwrist 7.15639
lhand -31.3063 -11.6856
lfingers 7.12502
lthumb -4.5789 18.2449
rfemur -23.8503 -3.51833 18.9818
rtibia 42.6704
rfoot -22.2845 -13.9381
rtoes -17.7763
lfemur -26.9424 5.38242 -17.9727
ltibia 46.6412
lfoot -14.7471 9.71099
ltoes -25.791
338
root 0.237644 17.1962 -10.1611 18.6387 2.79748 1.28416
lowerback 5.30101 -0.527918 -2.53463
upperback 1.23793 -0.81162 1.40372
thorax -1.64154 -0.394635 2.92213
lowerneck -16.238 0.11153 -2.94369
upperneck 18.0781 0.801347 0.47063
head 8.28348 0.223338 0.737665
rclavicle 3.97569e-015 -1.98785e-015
rhumerus -17.6284 -8.78434 -83.9606
rradius 27.4296
rwrist 30.2931
rhand -20.7804 -26.1188
rfingers 7.12502
rthumb 5.58641 -56.0251
lclavicle 3.97569e-015 -1.98785e-015
lhumerus -10.4395 0.759388 88.8467
lradius 18.3748
lwrist 7.70501
lhand -31.1877 -11.8697
lfingers 7.12502
lthumb -4.46442 18.0632
rfemur -21.1612 -3.87345 18.7421
rtibia 40.4209
rfoot -19.1876 -12.1415
rtoes -18.4071
lfemur -24.6802 5.5041 -17.7313
ltibia 44.7833
lfoot -11.5284 7.13165
ltoes -25.9373
339
root 0.241884 17.4193 -9.88876 17.8381 2.86681 1.30395
lowerback 4.07234 -0.573072 -2.46783
upperback 1.411 -0.843767 1.32611
thorax -0.777395 -0.426878 2.78644
lowerneck -14.8894 0.126815 -2.92046
upperneck 18.3889 0.762091 0.520737
head 8.14712 0.209214 0.742924
rclavicle 8.94531e-015 -3.57812e-015
rhumerus -17.9526 -8.39943 -84.155
rradius 27.7438
rwrist 30.3066
rhand -20.6728 -26.0453
rfingers 7.12502
rthumb 5.69022 -55.9489
lclavicle 8.94531e-015 -3.57812e-015
lhumerus -10.8482 0.0142306 88.9124
lradius 18.6272
lwrist 8.05454
lhand -31.0246 -11.9025
lfingers 7.12502
lthumb -4.3069 18.0337
rfemur -18.5854 -4.21506 18.5241
rtibia 38.2647
rfoot -15.6534 -10.2576
rtoes -18.4582
lfemur -22.4274 5.46508 -17.3978
ltibia 42.8454
lfoot -7.78211 4.65275
ltoes -25.8514
340
root 0.247059 17.6513 -9.61626 17.0204 2.9264 1.26648
lowerback 2.91205 -0.606897 -2.36172
upperback 1.59639 -0.861899 1.27084
thorax 0.060059 -0.450376 2.6526
lowerneck -13.5594 0.14011 -2.88428
upperneck 18.7058 0.723149 0.550275
head 8.01488 0.193806 0.739472
rclavicle 0 -1.07344e-014
rhumerus -18.2967 -8.01496 -84.3207
rradius 28.0644
rwrist 30.3746
rhand -20.5803 -25.982
rfingers 7.12502
rthumb 5.77955 -55.8832
lclavicle 0 -1.07344e-014
lhumerus -11.2948 -0.632084 88.9842
lradius 18.8938
lwrist 8.34034
lhand -30.8509 -11.7883
lfingers 7.12502
lthumb -4.13919 18.1512
rfemur -16.1511 -4.50175 18.3207
rtibia 36.2077
rfoot -11.6334 -8.518
rtoes -17.898
lfemur -20.2139 5.23139 -16.999
ltibia 40.8462
lfoot -3.51126 2.40035
ltoes -25.4502
341
root 0.252773 17.8893 -9.34551 16.2136 2.97207 1.18625
lowerback 1.81838 -0.628792 -2.23236
upperback 1.78031 -0.867442 1.23268
thorax 0.858505 -0.465333 2.5248
lowerneck -12.3129 0.156054 -2.81718
upperneck 19.0911 0.690535 0.557534
head 7.91936 0.180628 0.725006
rclavicle -4.07509e-015 5.1684e-015
rhumerus -18.6647 -7.62044 -84.4607
rradius 28.3933
rwrist 30.3804
rhand -20.5017 -25.9264
rfingers 7.12502
rthumb 5.8555 -55.8255
lclavicle -4.07509e-015 5.1684e-015
lhumerus -11.7787 -1.22496 89.0639
lradius 19.1729
lwrist 8.69557
lhand -30.7025 -11.6278
lfingers 7.12502
lthumb -3.99583 18.3145
rfemur -13.9051 -4.688 18.1248
rtibia 34.2739
rfoot -7.14041 -7.14591
rtoes -16.8244
lfemur -18.0963 4.80691 -16.5757
ltibia 38.8366
lfoot 1.22405 0.461269
ltoes -24.5267
342
root 0.25871 18.1305 -9.07809 15.4402 3 1.07932
lowerback 0.79546 -0.64123 -2.09481
upperback 1.95365 -0.864758 1.20573
thorax 1.60717 -0.473817 2.40588
lowerneck -11.174 0.174438 -2.73219
upperneck 19.5517 0.663597 0.565024
head 7.86721 0.17082 0.709101
rclavicle -8.94531e-016 -1.59028e-015
rhumerus -19.0394 -7.22278 -84.5831
rradius 28.7166
rwrist 30.2456
rhand -20.4345 -25.8889
rfingers 7.12502
rthumb 5.92033 -55.7861
lclavicle -8.94531e-016 -1.59028e-015
lhumerus -12.286 -1.79292 89.1457
lradius 19.474
lwrist 9.22419
lhand -30.5587 -11.3678
lfingers 7.12502
lthumb -3.85696 18.577
rfemur -11.8945 -4.74927 17.9351
rtibia 32.5123
rfoot -2.26524 -6.29707
rtoes -15.1115
lfemur -16.1386 4.23932 -16.1685
ltibia 36.9015
lfoot 6.31146 -1.11454
ltoes -22.7345
343
root 0.264581 18.372 -8.81573 14.7352 3.01891 0.975624
lowerback -0.169771 -0.650029 -1.96936
upperback 2.1044 -0.861143 1.17935
thorax 2.30188 -0.479737 2.29616
lowerneck -10.1671 0.192566 -2.64176
upperneck 20.0923 0.638016 0.591503
head 7.86469 0.163321 0.699603
rclavicle 1.88845e-015 5.1684e-015
rhumerus -19.4168 -6.84323 -84.6888
rradius 29.0245
rwrist 29.9604
rhand -20.3657 -25.8525
rfingers 7.12502
rthumb 5.98675 -55.7479
lclavicle 1.88845e-015 5.1684e-015
lhumerus -12.8094 -2.3189 89.223
lradius 19.7836
lwrist 9.90871
lhand -30.4142 -11.1359
lfingers 7.12502
lthumb -3.71749 18.8114
rfemur -10.1895 -4.71085 17.7444
rtibia 31.0089
rfoot 2.83098 -5.97144
rtoes -12.3987
lfemur -14.4319 3.60836 -15.825
ltibia 35.155
lfoot 11.5865 -2.34416
ltoes -19.5705
344
root 0.269949 18.611 -8.56063 14.1321 3.03003 0.890331
lowerback -1.08018 -0.657972 -1.86706
upperback 2.22071 -0.859116 1.14656
thorax 2.93225 -0.484623 2.19439
lowerneck -9.28464 0.206997 -2.55499
upperneck 20.6732 0.607317 0.648197
head 7.89769 0.155883 0.700875
rclavicle 9.93923e-016 3.77691e-015
rhumerus -19.7973 -6.49281 -84.7859
rradius 29.3199
rwrist 29.536
rhand -20.2753 -25.8189
rfingers 7.12502
rthumb 6.074 -55.7118
lclavicle 9.93923e-016 3.77691e-015
lhumerus -13.3312 -2.78064 89.2835
lradius 20.0851
lwrist 10.6807
lhand -30.2568 -10.907
lfingers 7.12502
lthumb -3.56545 19.043
rfemur -8.87007 -4.61038 17.5581
rtibia 29.8788
rfoot 7.94718 -6.07356
rtoes -7.988
lfemur -13.0665 3.03626 -15.5691
ltibia 33.7312
lfoot 16.6179 -3.25347
ltoes -15.3886
